<?xml version="1.0" standalone="no"?>
<!DOCTYPE svg PUBLIC "-//W3C//DTD SVG 1.1//EN" "http://www.w3.org/Graphics/SVG/1.1/DTD/svg11.dtd" >
<svg xmlns="http://www.w3.org/2000/svg">
<metadata>
Created by FontForge 20120731 at Mon Aug 15 09:20:09 2016
 By admin
</metadata>
<defs>
<font id="iconfont" horiz-adv-x="1024" >
  <font-face 
    font-family="iconfont"
    font-weight="500"
    font-stretch="normal"
    units-per-em="1024"
    panose-1="2 0 6 3 0 0 0 0 0 0"
    ascent="896"
    descent="-128"
    x-height="792"
    bbox="0 -128 1138 896"
    underline-thickness="50"
    underline-position="-100"
    unicode-range="U+0078-E63B"
  />
<missing-glyph horiz-adv-x="374" 
d="M34 0v682h272v-682h-272zM68 34h204v614h-204v-614z" />
    <glyph glyph-name=".notdef" horiz-adv-x="374" 
d="M34 0v682h272v-682h-272zM68 34h204v614h-204v-614z" />
    <glyph glyph-name=".null" horiz-adv-x="0" 
 />
    <glyph glyph-name="nonmarkingreturn" horiz-adv-x="341" 
 />
    <glyph glyph-name="x" unicode="x" horiz-adv-x="1001" 
d="M281 543q-27 -1 -53 -1h-83q-18 0 -36.5 -6t-32.5 -18.5t-23 -32t-9 -45.5v-76h912v41q0 16 -0.5 30t-0.5 18q0 13 -5 29t-17 29.5t-31.5 22.5t-49.5 9h-133v-97h-438v97zM955 310v-52q0 -23 0.5 -52t0.5 -58t-10.5 -47.5t-26 -30t-33 -16t-31.5 -4.5q-14 -1 -29.5 -0.5
t-29.5 0.5h-32l-45 128h-439l-44 -128h-29h-34q-20 0 -45 1q-25 0 -41 9.5t-25.5 23t-13.5 29.5t-4 30v167h911zM163 247q-12 0 -21 -8.5t-9 -21.5t9 -21.5t21 -8.5q13 0 22 8.5t9 21.5t-9 21.5t-22 8.5zM316 123q-8 -26 -14 -48q-5 -19 -10.5 -37t-7.5 -25t-3 -15t1 -14.5
t9.5 -10.5t21.5 -4h37h67h81h80h64h36q23 0 34 12t2 38q-5 13 -9.5 30.5t-9.5 34.5q-5 19 -11 39h-368zM336 498v228q0 11 2.5 23t10 21.5t20.5 15.5t34 6h188q31 0 51.5 -14.5t20.5 -52.5v-227h-327z" />
    <glyph glyph-name="uniE600" unicode="&#xe600;" 
d="M1017 290q2 -12 -1 -29.5t-10.5 -35.5t-17.5 -32.5t-22.5 -20.5t-21.5 -6t-20 4q-11 3 -26 5.5t-31 1t-32 -6.5t-27 -17q-25 -26 -29 -59t9 -62q11 -21 -3 -41q-6 -8 -19 -17t-29 -16t-33.5 -11t-30.5 -4q-9 0 -17.5 7t-11.5 15h-1q-11 32 -38 55t-63 23q-35 0 -63 -23
t-40 -54q-5 -12 -15 -17.5t-23 -5.5q-14 0 -32 5t-36 12.5t-32 18t-21 20.5q-6 7 -6.5 17t8.5 27q11 24 8.5 54t-26.5 56q-14 15 -34.5 19.5t-39.5 3.5q-21 -1 -44 -8q-14 -4 -28 2q-12 4 -21.5 19t-17 33t-12 37t-1.5 31q3 22 20 28q31 13 55.5 41t24.5 63q0 36 -24.5 62.5
t-55.5 38.5q-9 3 -15 15t-6 24q0 13 4 29.5t10.5 32t15 28.5t19.5 19q8 5 15.5 4t16.5 -4q31 -13 64.5 -8t58.5 29q13 13 18.5 30.5t7 35t0 32t-2.5 20.5q-2 6 -3.5 14.5t1.5 14.5q6 14 22 24.5t34.5 18t35.5 11t28 3.5q13 0 20.5 -8.5t10.5 -18.5q12 -27 37.5 -48t60.5 -21
t63 20t39 50q4 9 13 17.5t18 8.5q14 0 31 -4t33.5 -11.5t30 -18.5t21.5 -24q6 -9 4 -18.5t-5 -13.5q-13 -30 -8 -62.5t30 -57t60.5 -27.5t66.5 12q8 5 20 4t20 -9q15 -15 27 -44t16 -59q2 -17 -5.5 -27t-16.5 -13q-31 -11 -53.5 -39t-22.5 -64q0 -35 18.5 -61t49.5 -37
q7 -5 12 -9q12 -9 16 -23zM541 198q46 0 87 17t71 48t47.5 71.5t17.5 86.5t-17.5 86.5t-47.5 70.5t-71 47.5t-87 17.5t-86.5 -17.5t-71 -47.5t-48 -70.5t-17.5 -86.5t17.5 -86.5t48 -71.5t71 -48t86.5 -17z" />
    <glyph glyph-name="uniE601" unicode="&#xe601;" 
d="M512 842q95 0 178.5 -36.5t145.5 -98.5t98.5 -146t36.5 -179t-36.5 -178.5t-98.5 -145.5t-145.5 -98.5t-178.5 -36.5t-179 36.5t-146 98.5t-98.5 145.5t-36.5 178.5t36.5 179t98.5 146t146 98.5t179 36.5zM567 445q0 25 -15.5 42t-39.5 17t-40 -17t-16 -42v-343
q0 -24 16 -39t40 -15t40 15.5t16 39.5zM512 572q30 0 51 21t21 51t-21 51t-51 21t-51.5 -21t-21.5 -51t21.5 -51t51.5 -21z" />
    <glyph glyph-name="uniE602" unicode="&#xe602;" 
d="M794 71v110h-401v-110h-164v293l55 74h-28q-11 0 -19 8t-8 19.5t8 19.5t19 8h55q6 0 12 -3l70 95h401l70 -95q6 3 12 3h54q12 0 19.5 -8t7.5 -19.5t-7.5 -19.5t-19.5 -8h-27l54 -74v-293h-163zM302 364q0 -15 10.5 -25.5t25.5 -10.5h55q15 0 25.5 10.5t10.5 26t-10.5 26
t-25.5 10.5h-55q-15 0 -25.5 -10.5t-10.5 -26.5v0zM767 548h-351l-82 -110h515zM848 401h-54q-15 0 -26 -10.5t-11 -26t11 -26t26 -10.5h54q15 0 26 10.5t11 26t-11 26t-26 10.5v0zM542 641.5q0 7.5 -5 12.5t-13 5h-35q-4 0 -8 -1l-46 61h-262l-46 -61q-4 1 -7 1h-36
q-7 0 -12.5 -5t-5.5 -12.5t5.5 -13t12.5 -5.5h18l-36 -48v-192h107v72h47v57h97l69 87h138l-18 24h18q8 0 13 5.5t5 13zM173 551h-35q-10 0 -17 7t-7 17t7 17t17 7h35q10 0 17 -7t7 -17t-7 -17t-17 -7zM135 623l53 72h230l53 -72h-336z" />
    <glyph glyph-name="uniE603" unicode="&#xe603;" 
d="M80 518q0 28 9 39.5t41 11.5h131v-512h-56q-23 0 -45 0.5t-30 0.5q-28 -1 -39 9.5t-11 38.5v148q0 11 3.5 16.5t14.5 8.5q4 0 11.5 3t14.5 9.5t12 17t5 26.5q0 23 -12.5 36.5t-27.5 15.5q-11 2 -16 6.5t-5 16.5v108zM165 615v27q0 21 16 38t34 17h141v-82h-191zM999 393
q-8 -2 -11.5 -8.5t-3.5 -15t3.5 -16t12 -10.5t13 -12t5 -19.5t-2.5 -19.5t-9 -13q-21 -13 -21 -28t21 -31q4 -3 7.5 -11t3.5 -16.5t-4 -14.5t-15 -6h-55q-6 0 -6.5 1t1.5 3.5t5 5.5t5 7q5 15 0 25t-17 17q-8 5 -12 13.5t-3.5 17.5t4 16.5t9.5 10.5q8 3 12 11t4 17.5t-3 17
t-9 10.5q-8 4 -13 12.5t-5 18.5t4.5 20t13.5 16q6 4 10 11t4.5 15t-3 16t-12.5 13q-10 5 -15 15t-5 20t5 19t13 15q17 9 18.5 25t-2.5 29q-3 10 -12 18t-24 8h-491v81h576q7 0 12.5 -5t7 -12t-1 -15t-9.5 -13t-11.5 -13t-5 -17t2.5 -17.5t11 -12.5q12 -6 17.5 -17t5.5 -21.5
t-5.5 -20t-16.5 -13.5t-16 -11.5t-5.5 -17t4 -18t15 -14.5t15 -16.5t4 -20.5t-5 -19t-14.5 -10zM866 409q-12 -3 -18.5 -12t-7 -18t5 -18.5t16.5 -13.5q10 -4 15.5 -12t6 -17.5t-3.5 -17.5t-13 -12q-25 -13 -26 -30t19 -28q9 -4 15 -12.5t6.5 -18.5t-4 -17.5t-13.5 -10.5
q-12 -3 -18.5 -11t-7 -17.5t5 -18.5t17.5 -15q8 -5 12 -13.5t2.5 -16.5t-6 -15t-12.5 -7h-535v512h541q8 0 13 -6.5t5.5 -14.5t-4 -16.5t-13.5 -11.5t-14.5 -10t-6.5 -16t4 -17t17 -12q9 -4 15 -12.5t6.5 -17t-4 -16t-15.5 -10.5zM620 340q-6 0 -11.5 1t-2.5 6q1 2 10 14.5
t19.5 26t20 26t11.5 15.5q5 8 -7 20q-2 2 -8 6t-11 6q-8 3 -11.5 1t-8.5 -9q-3 -3 -11 -15l-17 -26q-9 -13 -17 -23.5t-9 -12.5q-2 -4 -7.5 -3t-7.5 5q-1 2 -9 11.5t-17.5 22t-18 23t-11.5 15.5q-10 17 -20 11q-7 -4 -12.5 -9t-10.5 -8q-11 -7 -3 -18q17 -20 30 -38
q12 -14 22 -27.5t12 -15.5q2 -4 -4 -4h-12q-5 0 -15 -0.5t-18 0.5q-8 0 -13.5 -4t-2.5 -10q1 -4 1 -13v-12q0 -5 3 -5.5t7 -0.5h59q12 0 12 -5v-20q0 -5 -2 -5h-68q-6 1 -8 -3t-3 -9t0 -9.5t1 -7.5q0 -14 13 -14h61q5 0 6 -1.5t1 -6.5q2 -5 1 -18.5t-1 -17.5q0 -11 14 -11
h33q8 0 8 5v41q0 10 9 10h9q7 0 16 0.5t17 0.5h13q15 0 15 11v22q0 9 -11 9h-59q-10 -2 -10 4q0 3 -0.5 8t-0.5 9t3.5 6t7.5 2h60q11 0 11 7v25q0 4 -4 8t-9 4h-34z" />
    <glyph glyph-name="uniE604" unicode="&#xe604;" horiz-adv-x="1025" 
d="M896 -128h-768q-53 0 -90.5 37.5t-37.5 90.5v704q0 53 37.5 90.5t90.5 37.5h768q53 0 90.5 -37.5t37.5 -90.5v-704q0 -53 -37.5 -90.5t-90.5 -37.5zM192 0h640q27 0 45.5 19t18.5 45v492l-293 -293q-38 -38 -91 -38t-90 38q-166 165 -294 293v-492q0 -26 19 -45t45 -19z
M192 704q-13 0 -26 -5l301 -301q19 -18 45.5 -18t44.5 18l301 301q-13 5 -26 5h-640z" />
    <glyph glyph-name="uniE605" unicode="&#xe605;" 
d="M274 518q-27 0 -35 15t11 38q19 25 45 60t53.5 72t53.5 72.5t47 61.5q18 23 35 24t36 -21q20 -24 45 -57t51.5 -69.5t52.5 -71.5t47 -60q22 -28 17 -46.5t-34 -17.5q-17 0 -44.5 -1t-46.5 -1q-20 -1 -24.5 -12.5t-4.5 -32.5v-50q0 -28 0.5 -56.5t0.5 -56.5v-51
q0 -10 -1.5 -21.5t-7.5 -20.5t-16.5 -15t-29.5 -6q-21 0 -39 -0.5t-43 -0.5q-33 0 -45 15.5t-12 50.5v40q0 24 -0.5 50.5t-0.5 52.5v49q0 30 -6 48t-28 17q-15 0 -37 1t-40 1zM962 -5q6 -25 -3 -47.5t-27.5 -39.5t-45 -26.5t-57.5 -9.5h-694q-37 0 -65 13.5t-45 33
t-22.5 42.5t1.5 41q6 14 12 30q6 13 13 30t15 34l39 94h117l-44 -129h659l-44 129h112q21 -52 39 -94q7 -18 14 -35.5t12.5 -31.5t9.5 -23.5t4 -10.5z" />
    <glyph glyph-name="uniE606" unicode="&#xe606;" 
d="M895 322q0 -79 -29.5 -149t-81.5 -123.5t-122 -88t-151 -41.5q-5 -1 -9 -1.5t-9 -0.5h-178q-17 0 -34 6t-30 17t-22 25.5t-9 29.5t8.5 29.5t21.5 24.5t29.5 16.5t33.5 6.5l159 -1q54 0 102.5 20t84 53.5t56 79t20.5 98.5q0 49 -18.5 92t-50.5 76.5t-75 54.5t-93 26
q-2 0 -2.5 -0.5t-2.5 -0.5h-163v-81q0 -17 -14 -25t-45 10q-8 5 -26 18t-42 30.5t-50 36.5l-52 39q-15 12 -26.5 22t-11.5 24q0 12 13 25.5t29 26.5q19 16 44.5 36.5t50.5 40t45 35t28 21.5q25 18 40.5 7.5t16.5 -30.5v-82h163q5 0 10.5 -1t10.5 -2q80 -8 149.5 -42
t121.5 -87.5t81 -123.5t29 -147z" />
    <glyph glyph-name="uniE607" unicode="&#xe607;" horiz-adv-x="1042" 
d="M582 199h127v-195q0 -34 -10.5 -59t-27.5 -41t-39.5 -23.5t-47.5 -7.5h-453q-25 0 -48.5 9.5t-41 27t-29 41t-11.5 52.5v707q0 24 12 46.5t30 40t40.5 28.5t45.5 11h450q26 0 49.5 -12t41.5 -30t28.5 -40.5t10.5 -43.5v-189h-127l1 196h-453l-1 -714h453v196zM1022 390
q38 -31 2 -60q-20 -16 -44.5 -38.5t-50.5 -46.5t-51.5 -47.5t-47.5 -40.5q-23 -19 -40 -19t-17 25q2 14 0.5 35.5t-1.5 37.5q0 17 -12 21t-30 4h-103q-35 0 -73.5 0.5t-73.5 0.5h-104q-8 0 -18 1.5t-17.5 6.5t-12 14.5t-4.5 23.5q0 20 -0.5 46.5t0.5 46.5q0 28 13 38.5
t43 9.5h93q33 0 70.5 -1t70.5 -1h101q25 -1 43 4.5t18 22.5q0 14 1 32t1 33q0 23 13 29t32 -9q20 -16 46 -38t52.5 -45t52.5 -45.5t48 -40.5z" />
    <glyph glyph-name="uniE608" unicode="&#xe608;" 
d="M642 1v-11q0 -5 0.5 -11t0.5 -12q-1 -20 -10.5 -43t-37.5 -33q-11 -4 -28.5 -11.5t-53.5 -7.5q-30 0 -50 7t-31 9q-15 3 -23.5 13t-13 22t-5.5 24.5t-1 23.5v31zM863 666q26 -62 30 -117t-6 -101t-29.5 -82.5t-40 -64t-39 -45.5t-25.5 -24q-10 -9 -18.5 -13.5t-15.5 -7.5
t-13 -7.5t-12 -13.5q-13 -19 -20 -37.5t-13 -35.5q-5 -14 -11 -23t-13 -17q-8 -8 -16 -13h-224q-8 5 -15 13t-14.5 19t-12.5 28q-10 30 -24.5 47.5t-38.5 35.5q-16 12 -37 32t-41 47.5t-38.5 61.5t-29.5 75t-13 87t9 97q17 82 60 137t95.5 89t109 48.5t102.5 14.5
q48 0 99.5 -13t100 -41t88.5 -71.5t66 -104.5zM760 459q44 178 -114 271q-26 17 -61 26t-72 9t-73 -9t-64 -29q-69 -48 -93.5 -103.5t-22.5 -117.5q1 -35 11.5 -62.5t25.5 -50t30.5 -39t27.5 -29.5q26 -27 45 -47t31 -50q11 -30 35 -36.5t44 -6.5q26 0 50.5 12t34.5 36
q5 14 21 34.5t48 57.5q16 19 30.5 33t27.5 28.5t22.5 31t15.5 41.5z" />
    <glyph glyph-name="uniE609" unicode="&#xe609;" 
d="M935 105q6 -15 8.5 -39t2.5 -48t-4 -45.5t-11 -32.5q-5 -7 -29 -15t-58.5 -15.5t-77.5 -14.5t-86 -12t-83 -8t-70 -3q-45 0 -106 6.5t-119 16t-101.5 19t-52.5 16.5q-12 8 -17.5 50t4.5 107q6 37 30.5 56.5t58 31t68.5 20.5t61 26q22 13 33.5 25.5t16 24.5t4.5 25.5
t-1 28.5q-2 24 -15.5 37.5t-31.5 27.5q-8 7 -14 20t-11 26q-5 15 -10 31q-7 3 -15 8q-6 5 -13 14t-12 26.5t-3.5 31t5.5 23.5q4 11 12 22q-1 38 4 77q4 33 15 69.5t31 65.5q19 28 43 45.5t48.5 28t49.5 14.5t48 4q30 0 57 -7t50.5 -18.5t41.5 -25t30 -27.5q25 -33 37.5 -72
t18.5 -74q6 -41 5 -81q7 -4 11 -13q4 -7 6.5 -18t0.5 -27q-3 -22 -9.5 -34.5t-14.5 -19.5q-10 -8 -20 -12q-4 -16 -9 -31q-5 -13 -11.5 -26t-14.5 -20q-10 -8 -18 -13.5t-14 -11.5t-10 -15t-6 -21q-3 -15 -2 -31t8 -31.5t23.5 -30t43.5 -25.5q25 -10 55.5 -17.5t58.5 -18.5
t49.5 -27t30.5 -43zM545 -62q5 0 15.5 6.5t20.5 16t18 18.5t8 14q0 6 -3 21.5t-7.5 33.5t-8.5 36t-7 29q10 8 17.5 18t7.5 20q0 8 -6 16.5t-13 14.5q-8 8 -17 15h-51q-10 -7 -17 -15q-6 -6 -11 -14t-5 -16q0 -6 7.5 -16.5t18.5 -19.5q-3 -9 -8 -26t-9.5 -36t-8.5 -36t-4 -25
q0 -5 8 -14t18.5 -18.5t20.5 -16t16 -6.5z" />
    <glyph glyph-name="uniE60A" unicode="&#xe60a;" horiz-adv-x="1028" 
d="M1018 784q4 -9 7 -21.5t3 -26t-5.5 -26.5t-16.5 -25q-12 -13 -22 -22t-17 -16l-15 -15l-192 192q13 11 29.5 27t28.5 25q14 11 29.5 15.5t30 4t28.5 -4.5t24 -9q22 -11 48 -39t40 -59zM221 284q6 7 28.5 30t56.5 56l378 378l191 -192l-220 -220l-82 -83
q-41 -40 -73.5 -73.5t-54 -55t-25.5 -24.5q-11 -9 -24 -19t-28 -17q-14 -7 -41.5 -17t-58 -20t-57.5 -17t-40 -9q-28 -3 -37 8t-5 38q2 14 9.5 41.5t16.5 56.5t17 53.5t13 33.5q6 15 14 26.5t22 25.5z" />
    <glyph glyph-name="uniE60B" unicode="&#xe60b;" 
d="M301 -128v1024h422v-1024h-422zM663 836h-302v-60h181v-61h-181v-60h121v-60h-121v-60h121v-61h-121v-60h181v-60h-181v-60h121v-61h-121v-60h121v-60h-121v-60h181v-61h-181v-60h302v904z" />
    <glyph glyph-name="uniE60C" unicode="&#xe60c;" 
d="M293 483q22 -22 53 -22t53 22t22 53t-22 53t-53 22q-17 0 -33 -8q-11 -5 -20 -14q-22 -22 -22 -53q0 -20 10 -37q5 -9 12 -16zM346 432h-3q-52 -1 -92.5 -31t-52.5 -76q-5 -16 -5 -34h305q0 58 -44.5 99.5t-107.5 41.5zM923 728h-825q-14 0 -24.5 -10.5t-10.5 -25.5v-613
q0 -15 10.5 -26t24.5 -11h825q15 0 25 11t10 26v613q0 15 -10 25.5t-25 10.5zM897 130q0 -13 -9 -21.5t-22 -8.5h-711q-13 0 -21.5 8.5t-8.5 21.5v511q0 12 8.5 21t21.5 9h711q13 0 22 -9t9 -21v-511zM535 507h286v-56h-286v56zM535 399h286v-56h-286v56zM193 224h631v-56
h-631v56z" />
    <glyph glyph-name="uniE60D" unicode="&#xe60d;" 
d="M808 270q75 0 127 -52.5t52 -126.5t-52 -126.5t-126.5 -52.5t-127 52.5t-52.5 126.5t52.5 126.5t126.5 52.5zM898 108v68l-115 -102l-64 57v-69l64 -57zM980 536q1 8 -5 14q-2 5 -6 8l-453 322q-5 3 -11 3l-257 6q-14 0 -18.5 -13t7.5 -21l117 -84l-56 -40q-3 -1 -6 -3
l-247 -178q-8 -6 -8 -15v-1h-1v-314l8 -15l453 -321h1q2 -2 3 -2q4 -2 8 -2q6 0 11 4l111 79q-11 15 -19 31l-84 -59v268l416 295v-236q10 -8 19 -17q10 -10 18 -21v310l-1 1v1zM307 850l192 -4l400 -283l-192 4zM490 -65l-417 295v268l417 -295v-268zM509 236l203 146
l-422 299l-202 -146zM431 182v-145l-318 225v146z" />
    <glyph glyph-name="uniE60E" unicode="&#xe60e;" 
d="M960 179q0 -22 -16 -38t-38 -16h-788q-22 0 -38 16t-16 38v453q0 23 16 39t38 16h790q22 0 38 -16t16 -39v-453h-2zM924 636h-822v-460h822v460zM316 407q0 -9 -4.5 -15.5t-10.5 -6.5h-91q-6 0 -10.5 6.5t-4.5 15.5t4.5 16t10.5 7h91q6 0 10.5 -7t4.5 -16zM821 407
q0 -9 -4.5 -15.5t-10.5 -6.5h-408q-6 0 -10.5 6.5t-4.5 15.5t4.5 16t10.5 7h408q6 0 10.5 -7t4.5 -16z" />
    <glyph glyph-name="uniE60F" unicode="&#xe60f;" 
d="M929 384q0 7 -1 10q-1 5 -2 9l-1 2t-1 4q-58 126 -171.5 203.5t-240.5 77.5t-240.5 -77.5t-170.5 -202.5q-2 -3 -2 -6h-1v-1q-1 -2 -1 -7l-2 -9v-6q1 -5 1 -7t1 -6q1 -2 2 -5q1 -2 1 -3q58 -127 171.5 -204.5t240.5 -77.5t240.5 77.5t170.5 202.5q2 2 2 6l1 1l2 7h-1
q2 7 2 12zM873 382v-1l-1 -1q-51 -110 -150 -178t-210 -68q-110 0 -209 68t-151 178v2h-1v1v1v1v2h1v1q51 110 150.5 178t210 68t209.5 -68t150 -178v-1q1 0 1 -1v-2v-2zM512 523q-57 0 -98 -41t-41 -98t41 -98t98 -41t98 41t41 98t-41 98t-98 41zM512.5 301
q-34.5 0 -59 24.5t-24.5 58.5t24.5 58.5t59 24.5t58.5 -24.5t24 -58.5t-24 -58.5t-58.5 -24.5z" />
    <glyph glyph-name="uniE610" unicode="&#xe610;" 
d="M293 804h-55v-237h55v237zM677 731h-330v-55h330v55zM969 731h-128v-55h92h18v-18v-146h-878v146v18h18h92v55h-128h-37v-36v-732v-36h37h688h57q23 73 77.5 128t128.5 77v179h-55v-141q-63 -27 -112 -76t-77 -112h-671h-18v18v457h933v238v36h-37zM786 804h-55v-237h55
v237z" />
    <glyph glyph-name="uniE611" unicode="&#xe611;" 
d="M622 -64q-10 0 -18 6l-230 195h-284q-36 0 -61.5 26t-25.5 62v520q0 36 25.5 61.5t61.5 25.5h844q36 0 62 -25.5t26 -61.5v-520q0 -36 -26 -62t-62 -26h-282l-3 -174q0 -18 -16 -25q-5 -2 -11 -2zM90 778q-13 0 -23 -10t-10 -23v-520q0 -14 10 -23.5t23 -9.5h294
q10 0 18 -6l193 -165l3 144q0 11 8 19t19 8h309q13 0 23 9.5t10 23.5v520q0 13 -10 23t-23 10h-844zM348 620h329v-55h-329v55zM348 469h329v-55h-329v55zM348 469z" />
    <glyph glyph-name="uniE612" unicode="&#xe612;" horiz-adv-x="1086" 
d="M993 543q39 -54 58.5 -114t27 -118t7 -108t-0.5 -82q0 -6 -1 -15t-3.5 -17.5t-6 -14.5t-9.5 -6h-42q0 34 -11 59t-28.5 40t-41.5 22.5t-51 7.5t-49.5 -10.5t-39.5 -28t-26.5 -40.5t-9.5 -48h-18q-19 0 -32.5 13t-13.5 32v493q0 12 8 26.5t19 15.5q34 3 71 -2.5t72.5 -19
t67.5 -35t53 -50.5zM977 323q12 0 21.5 0.5t9.5 12.5q0 2 -0.5 3t-0.5 3q-12 50 -25 96.5t-45 79.5q-21 20 -44.5 28.5t-44.5 11t-35 1.5t-15 -1q-14 0 -23 -9.5t-9 -21.5v-93q0 -41 1 -91v-1q0 -5 7 -12t14 -7h189zM637 775l2 -666q0 -18 -12 -29t-28 -11h-280
q0 60 -30.5 95t-95.5 35q-63 0 -96.5 -32.5t-33.5 -97.5h-23q-17 0 -28.5 10t-11.5 30v532q0 25 9 48.5t26 43t39.5 31t49.5 11.5h513zM896 132q27 0 46.5 -19.5t19.5 -45.5q0 -28 -19.5 -47.5t-46.5 -19.5q-28 0 -47 19.5t-19 47.5q0 26 19 45.5t47 19.5zM191.5 133
q27.5 0 46.5 -19.5t19 -46.5t-19 -46.5t-46.5 -19.5t-46.5 19.5t-19 46.5t19 46.5t46.5 19.5z" />
    <glyph glyph-name="uniE613" unicode="&#xe613;" horiz-adv-x="1025" 
d="M1014 660l-519 225q-7 3 -13 0l-472 -213q-10 -4 -10 -15v-529q0 -10 9 -15l490 -234q3 -1 7 -1t7 1l502 245q9 4 9 15v506q0 11 -10 15zM471 -34l-414 198v400l414 -176v-422zM511 457l-427 176q-2 1 -4 1l410 178l438 -184zM967 174l-415 -202v416l415 176v-390z
M126 376l214 -99q5 -4 11 -6q20 -6 34 10q8 10 7 23t-11 22l-214 99q-10 9 -23 7.5t-21.5 -11.5t-7.5 -23t11 -22z" />
    <glyph glyph-name="uniE614" unicode="&#xe614;" horiz-adv-x="1026" 
d="M967 440h-4v30q0 21 -15 36.5t-37 15.5h-15v41q0 22 -15 37t-37 15h-86q-22 0 -37 -15t-15 -37v-123h-388v123q0 22 -15 37t-37 15h-87q-21 0 -36.5 -15t-15.5 -37v-41h-15q-21 0 -36 -15.5t-15 -36.5v-30h-7q-22 0 -38 -15.5t-16 -38t16 -38t38 -15.5h7v-30
q0 -22 15 -37t36 -15h15v-42q0 -21 15.5 -36.5t36.5 -15.5h87q22 0 37 15.5t15 36.5v124h388v-124q0 -21 15 -36.5t37 -15.5h86q22 0 37 15.5t15 36.5v42h15q22 0 37 15t15 37v30h4q22 0 37.5 15.5t15.5 38t-15.5 38t-37.5 15.5z" />
    <glyph glyph-name="uniE615" unicode="&#xe615;" 
d="M879 751q-29 0 -50 -20.5t-21 -49.5q0 -19 10 -36l-199 -281q-7 2 -14 2q-21 0 -38 -12l-140 90v2q0 29 -20.5 49.5t-49.5 20.5t-49.5 -20.5t-20.5 -49.5q0 -16 7 -31l-139 -211q-5 1 -11 1q-29 0 -49.5 -20.5t-20.5 -49.5t20.5 -49.5t49.5 -20.5t49.5 20.5t20.5 49.5
q0 21 -11 38l135 205q10 -2 19 -2q25 0 45 16l134 -86q-1 -5 -1 -10q0 -29 20.5 -50t49.5 -21t49.5 21t20.5 50q0 19 -9 35l199 281q7 -1 14 -1q29 0 49.5 20.5t20.5 49.5t-20.5 49.5t-49.5 20.5z" />
    <glyph glyph-name="uniE616" unicode="&#xe616;" 
d="M406 417l-284 154q-8 4 -18 4q-16 0 -28 -12t-12 -31v-300q0 -23 11.5 -43t30.5 -30l284 -154q10 -5 18 -5q16 0 28 12.5t12 31.5v300q0 23 -11.5 43t-30.5 30zM384 81l-248 134q-8 6 -8 17v263l248 -134q8 -5 8 -17v-263zM856 575q-10 0 -18 -4l-284 -154
q-19 -11 -30.5 -31t-11.5 -44v-298q0 -19 12 -31.5t28 -12.5q10 0 18 4l284 155q19 10 30.5 30t11.5 43v300q0 19 -12 31t-28 12zM832 233q0 -13 -8 -17l-248 -135v261q0 14 8 18l248 135v-262zM812 641q21 11 19 31q2 20 -19 31l-289 151q-19 10 -43 10v0q-30 -3 -44 -10
l-289 -151q-20 -10 -19 -31q-1 -20 19 -31l289 -150q18 -10 43 -10h1h1q24 0 43 10zM479 545q-7 0 -14 3l-239 124l239 125q7 3 15 3t14 -3l239 -125l-240 -124q-5 -3 -14 -3z" />
    <glyph glyph-name="uniE617" unicode="&#xe617;" 
d="M896 548q0 -10 -0.5 -19t-1.5 -20q-10 -85 -38 -163t-71 -150t-99 -138.5t-122 -128.5q-9 -11 -23 -11q-16 0 -25 11q-65 62 -122 129.5t-100.5 141t-71.5 153t-36 164.5q0 9 -0.5 16t-0.5 15q0 72 28 135.5t76 110.5t113 74.5t138.5 27.5t138 -27.5t112.5 -74.5
t76.5 -110.5t28.5 -135.5zM540.5 389q33.5 0 63.5 12.5t52 34t34.5 50.5t12.5 62t-12.5 62t-34.5 50.5t-52 34.5t-63.5 13t-63 -13t-52 -34.5t-35.5 -50.5t-13 -62t13 -62t35.5 -50.5t52 -34t63 -12.5z" />
    <glyph glyph-name="uniE618" unicode="&#xe618;" 
d="M952 386q48 -55 1 -107l-331 -334q-22 -18 -49.5 -16t-43.5 18q-123 124 -221 222l-82 82q-40 40 -71 71.5t-51 51.5t-21 22q-3 4 -10.5 15t-7.5 26v62q0 23 0.5 53t0.5 60q1 72 2 160q1 0 1 1q2 13 4.5 25.5t13.5 23.5q10 12 23.5 16t24.5 4h338q2 0 9 -0.5t11 -1.5
q12 -5 22 -14zM220.5 622q27.5 0 47 20t19.5 47.5t-19.5 47t-47 19.5t-47 -19.5t-19.5 -47t19.5 -47.5t47 -20z" />
    <glyph glyph-name="uniE619" unicode="&#xe619;" 
d="M232 105h224v56h-224v-56zM232 272h224v56h-224v-56zM736 831h-448q-92 0 -158 -65.5t-66 -158.5v-670h560v478q53 -31 112 -31q92 0 158 65.5t66 158t-66 158t-158 65.5zM512 607v-558h-336v558q0 47 33 79.5t79 32.5h255q-31 -53 -31 -112zM735.5 496q-46.5 0 -79 32.5
t-32.5 79t32.5 79t79 32.5t79.5 -32.5t33 -79t-33 -79t-79.5 -32.5zM232 440h224v56h-224v-56zM232 607h224v56h-224v-56z" />
    <glyph glyph-name="uniE61A" unicode="&#xe61a;" horiz-adv-x="1025" 
d="M1024 647q0 69 -48 117t-117 48h-9h-677h-7q-68 0 -116.5 -48.5t-48.5 -116.5v-4v-520v-4q0 -68 48.5 -116.5t116.5 -48.5h3h697q66 3 112 50.5t46 114.5v517v11zM167 730q4 0 7 1h678q3 -1 7 -1q33 0 57 -23.5t25 -56.5v-36l-428 -247l-429 248v29q1 2 1 4q0 34 24 58
t58 24zM858 36h-7h-678h-6q-34 0 -58 24t-24 59q0 1 -1 3v446l429 -248l428 247v-443q-1 -2 -1 -5q0 -34 -24 -58.5t-58 -24.5z" />
    <glyph glyph-name="uniE61B" unicode="&#xe61b;" 
d="M455 300h89l27 167h-90zM512 833q-91 0 -174 -35.5t-143 -95.5t-95.5 -143t-35.5 -174t35.5 -174t95.5 -143t143 -95t174 -35t174 35t143 95t95.5 143t35.5 174t-35.5 174t-95.5 143t-143 95.5t-174 35.5zM696 467h-61l-26 -167h69l-9 -57h-69l-18 -110h-65l18 110h-89
l-18 -110h-65l18 110h-61l9 57h61l26 167h-70l9 57h70l18 110h64l-17 -110h90l17 110h65l-18 -110h61z" />
    <glyph glyph-name="uniE61C" unicode="&#xe61c;" horiz-adv-x="1027" 
d="M1026 42v-6q0 -68 -48 -116t-116 -48h-698q-68 0 -116 48t-48 116v696q0 68 48 116t116 48h698q68 0 116 -48t48 -116v-530v-160zM277 108q-46 0 -82 13.5t-55 35t-26 47.5t2.5 52t33.5 47q18 15 47.5 25t52.5 12q65 7 130.5 -13t157.5 -65q-59 -73 -126 -113.5
t-135 -40.5zM845 254q-28 10 -158 57q54 93 87 216h-204v71h249v41h-249v122h-100q-8 0 -13 -5t-5 -9l-1 -5v-105h-250v-41h250v-69h-207v-41h402q-19 -69 -57 -142q-249 83 -357 55q-76 -19 -113 -63q-36 -43 -41 -95.5t16.5 -96.5t74.5 -74t127 -30q89 0 174 47t154 132
q60 -29 161 -73.5t170.5 -73.5t70.5 -30v158q-33 5 -181 54z" />
    <glyph glyph-name="uniE61D" unicode="&#xe61d;" 
d="M740 595l-327 -327l-129 129q-14 15 -34.5 15t-35 -14.5t-14.5 -35t14 -34.5l155 -155q16 -16 44 -14q29 -2 45 14l352 352q14 14 14 34.5t-14.5 35t-35 14.5t-34.5 -14zM740 595zM512 853q-95 0 -182 -37t-150 -100t-100 -150t-37 -182t37 -182t100 -150t150 -100
t182 -37t182 37t150 100t100 150t37 182t-37 182t-100 150t-150 100t-182 37zM512 -25q-111 0 -205.5 54.5t-149 149t-54.5 205.5t54.5 205.5t149 149t205.5 54.5t205.5 -54.5t149 -149t54.5 -205.5t-54.5 -205.5t-149 -149t-205.5 -54.5zM512 -25z" />
    <glyph glyph-name="uniE61E" unicode="&#xe61e;" 
d="M546 179h-205v-68h205v68zM273 179h-136v-68h136v68zM85 43q-6 0 -11.5 5t-5.5 12v324h888v-324q0 -7 -5 -12t-12 -5h-854zM939 725q7 0 12 -5t5 -12v-119h-888v119q0 7 5 12t12 5h854zM85 794q-35 0 -60 -25.5t-25 -60.5v-648q0 -35 25 -60.5t60 -25.5h854q35 0 60 25.5
t25 60.5v648q0 35 -25 60.5t-60 25.5h-854z" />
    <glyph glyph-name="uniE61F" unicode="&#xe61f;" horiz-adv-x="1025" 
d="M657 278q11 0 20 9t9 20.5t-9 20.5t-20 9h-119l109 111q9 9 9 20.5t-9 20.5t-21 9t-21 -9l-93 -97l-94 97q-9 9 -21 9t-21 -9t-9 -21t9 -21l108 -110h-118q-11 0 -20 -9t-9 -20.5t9 -20.5t20 -9h115v-30h-115q-11 0 -20 -9t-9 -20.5t9 -20.5t20 -9h115v-85q0 -9 9 -15.5
t20.5 -6.5t20.5 6.5t9 15.5v85h114q12 0 21 9t9 20.5t-9 20.5t-21 9h-114v30h117zM927 854h-830q-40 0 -68.5 -28.5t-28.5 -68.5v-129q0 -40 28.5 -68t68.5 -28h73v-521q0 -40 28 -68.5t68 -28.5h494q39 0 67.5 28.5t28.5 68.5v521h74q39 0 66.5 28.5t27.5 68.5v128
q0 40 -28.5 68.5t-68.5 28.5zM791 8q0 -19 -14.5 -25.5t-40.5 -6.5h-470q-13 0 -22 9t-9 23v589q0 13 9 22.5t22 9.5h494q13 0 22 -9.5t9 -22.5v-589zM960 761v-136q0 -13 -9 -22.5t-22 -9.5h-77q0 21 -6 36q19 0 33 14t14 33t-14 33t-33 14h-670q-20 0 -34 -14t-14 -33
t14 -33t34 -14q-6 -15 -6 -36h-77q-13 0 -22.5 9.5t-9.5 22.5v136q0 13 9.5 22t22.5 9h840q13 0 22 -9t9 -22h-4z" />
    <glyph glyph-name="uniE620" unicode="&#xe620;" 
d="M522 792q2 0 5 2q7 4 17 14q12 11 24.5 16t32.5 -3q10 -3 16.5 -8.5t12 -10.5t12 -8.5t17 -3.5t17.5 3t13.5 5.5t13.5 3.5t16 -2q10 -4 13.5 -12t2 -16t-7 -16t-13.5 -14q-20 -12 -30 -24.5t-20 -27.5q-6 -7 -12 -16t-11 -19q-6 -11 -13 -21h-212q-7 12 -15 23
q-6 11 -13 21t-12 18q-10 16 -23 27.5t-25 20.5q-14 10 -19 25.5t9 27.5q8 5 17 4t19.5 -4t20 -6.5t17.5 -0.5q15 3 22 10.5t24 18.5q14 8 30 5.5t25 -10.5q4 -5 8.5 -8.5t9.5 -6.5q5 -4 11 -7zM638 587q12 -17 31 -36q15 -17 37.5 -39.5t52.5 -46.5q24 -22 50.5 -51
t45.5 -68t27 -89.5t-2 -113.5q-10 -51 -37 -96.5t-72 -79.5t-107 -53.5t-141 -19.5q-81 0 -143.5 23t-106 59.5t-69 82t-33.5 91.5q-9 50 -2.5 96t24 86.5t43.5 74t57 60.5q26 23 47.5 44t36.5 39q17 19 31 37h230zM529 272l-49 50q-10 10 -14 15q-8 7 -21.5 11.5
t-22.5 -5.5q-8 -11 -4 -22t9 -17l15 -14q12 -12 25 -27q15 -16 34 -35l-1 -21h-70q-9 0 -15.5 -7t-6.5 -15.5t6 -14.5t16 -6h70v-36h-70q-9 0 -15.5 -5.5t-6.5 -14.5q-1 -9 5.5 -14.5t16.5 -5.5h70v-20q1 -15 9 -20.5t20 -5.5q13 -1 20.5 7.5t7.5 18.5v20h72q10 0 16.5 4.5
t5.5 15.5q0 21 -28 21h-66l1 35l67 1q14 -1 20 5.5t6 15.5t-6.5 15.5t-20.5 6.5h-67v19l32 32q12 12 24.5 25t18.5 18q23 21 10 36q-7 9 -18.5 9t-20.5 -8q-5 -4 -17.5 -15t-24.5 -22q-14 -13 -32 -30z" />
    <glyph glyph-name="uniE621" unicode="&#xe621;" 
d="M820 99q0 -25 -10 -47t-27.5 -38.5t-41 -26t-51.5 -9.5h-357q-28 0 -51.5 9.5t-41 26t-27.5 38.5t-10 47v675q0 25 10 47.5t27.5 39t41 26t51.5 9.5h357q28 0 51.5 -9.5t41 -26t27.5 -39t10 -47.5v-675zM739 726h-456v-578h456v578zM511 120q-21 0 -36.5 -15t-15.5 -37
t15.5 -37.5t36.5 -15.5q22 0 37 15.5t15 37.5t-15 37t-37 15zM592 811q0 8 -5 12.5t-12 4.5h-128q-5 0 -10.5 -4.5t-5.5 -12.5t5 -12.5t11 -4.5h128q7 0 12 4.5t5 12.5z" />
    <glyph glyph-name="uniE622" unicode="&#xe622;" 
d="M514 -128q-104 0 -198.5 40.5t-163 108.5t-109 162.5t-40.5 198.5t40.5 198.5t109 163t163 109t198.5 40.5t198.5 -40.5t162.5 -109t108.5 -163t40.5 -198.5t-40.5 -198.5t-108.5 -162.5t-162.5 -108.5t-198.5 -40.5zM516.5 -94q62.5 0 123 17.5t102 42t72.5 49.5
t45.5 42t10.5 17q-77 -64 -158.5 -99t-150 -39.5t-133 6t-113.5 33t-86 45t-56.5 38t-19.5 16.5q5 -6 16 -17.5t47 -40.5t75.5 -51t101 -40.5t124 -18.5zM516.5 857q-62.5 0 -123.5 -17.5t-102.5 -42.5t-74 -49.5t-48.5 -41.5l-15 -18q7 7 20 17.5t55.5 37.5t87.5 46
t112.5 32t134 7t148.5 -40.5t159 -99.5q4 0 -10.5 17.5t-45.5 42t-72.5 49.5t-102 42.5t-123 17.5zM898 538q-14 2 -33.5 16t-36.5 37q-21 27 -29.5 53t-0.5 37q-58 53 -131 82t-153 29q-161 0 -281 -108q10 -10 2 -37t-30 -56q-20 -25 -41 -39.5t-35 -13.5
q-31 -75 -31 -156q0 -111 55.5 -205.5t151.5 -149t209 -54.5t208.5 54.5t151.5 149t56 205.5q0 82 -32 156zM771 296q-35 0 -65 -13t-49 -31.5t-32.5 -37.5t-19.5 -32l-5 -13l1 -160l-84 -1v-1h-8h-9v1l-85 1l1 160q-2 5 -5.5 13.5t-16.5 30.5t-30 39t-46.5 30.5t-64.5 13.5
l-108 1q-2 4 -5.5 12t-9 38t-3.5 66q48 2 83.5 15.5t59 31.5t49 36t71.5 31.5t110 14.5v1q2 0 4.5 -0.5t4 -0.5t4 0.5t4.5 0.5v-1q64 -1 110.5 -14.5t73.5 -31.5t51.5 -36t60.5 -31.5t85 -15.5q1 -36 -3.5 -65t-10.5 -40l-5 -11q-31 -1 -108 -1zM511 506q-63 0 -107 -38
t-44 -92t44.5 -92t107 -38t107 38t44.5 92t-44.5 92t-107.5 38zM511.5 280q-46.5 0 -79.5 28t-33 68t33 68.5t79.5 28.5t79.5 -28.5t33 -68.5t-33 -68t-79.5 -28zM512 439q-34 0 -58.5 -17t-24.5 -42q0 -9 4 -11t12.5 1t17.5 7t23 8t26 4t25.5 -4t23 -8t17.5 -7t12 -1t4 11
q0 25 -24 42t-58 17z" />
    <glyph glyph-name="uniE623" unicode="&#xe623;" horiz-adv-x="1028" 
d="M1018 784q4 -9 7 -21.5t3 -26t-5.5 -26.5t-16.5 -25q-12 -13 -22 -22t-17 -16l-15 -15l-192 192q13 11 29.5 27t28.5 25q14 11 29.5 15.5t30 4t28.5 -4.5t24 -9q22 -11 48 -39t40 -59zM221 284q6 7 28.5 30t56.5 56l378 378l191 -192l-220 -220l-82 -83
q-41 -40 -73.5 -73.5t-54 -55t-25.5 -24.5q-11 -9 -24 -19t-28 -17q-14 -7 -41.5 -17t-58 -20t-57.5 -17t-40 -9q-28 -3 -37 8t-5 38q2 14 9.5 41.5t16.5 56.5t17 53.5t13 33.5q6 15 14 26.5t22 25.5z" />
    <glyph glyph-name="uniE624" unicode="&#xe624;" 
d="M385 510h-129v151q0 49 19.5 91.5t54 74.5t81 50.5t101.5 18.5q49 0 94.5 -18.5t81 -50.5t56.5 -74.5t21 -91.5v-151h-124v122q0 65 -36 100t-97 35q-55 0 -89 -35t-34 -100v-122zM826 449q28 0 48 -20t20 -48v-317q0 -27 -10 -51t-27 -42t-40 -28.5t-50 -10.5h-517
q-28 0 -50.5 10.5t-38 27.5t-24.5 39.5t-9 47.5v324q0 28 19.5 48t47.5 20h631z" />
    <glyph glyph-name="uniE625" unicode="&#xe625;" 
d="M352 352q-66 0 -113 47t-47 113t47 113t113 47t113 -47t47 -113t-47 -113t-113 -47zM352 608q-40 0 -68 -28t-28 -68t28 -68t68 -28t68 28t28 68t-28 68t-68 28zM512 92l-28 173l-79 25l20 60l115 -39l34 -211zM192 92l-64 10l34 212l115 38l20 -60l-79 -25zM640 608h128
v-64h-128v64zM640 480h256v-64h-256v64zM640 352h256v-64h-256v64zM640 224h256v-64h-256v64zM352 32h320v-64h-320v64zM1024 -32h-288v64h224v704h-896v-704h224v-64h-288v832h1024v-832z" />
    <glyph glyph-name="uniE626" unicode="&#xe626;" 
d="M692 598q8 14 0 28q-9 16 -43 16h-3h-375q-23 0 -35 -9t-12 -22q0 -15 17 -24q21 -10 30 -10h378q30 0 43 21zM224 478q0 -17 17 -26q13 -7 30 -7h290l5 7q20 21 28 28l38 31h-361q-23 0 -35 -10t-12 -23zM854 506q21 -10 28 -15l27 -17v295q0 36 -24.5 53t-52.5 17h-689
q-29 0 -58.5 -17.5t-29.5 -52.5v-778q0 -35 29.5 -53t59.5 -18h688q37 0 57 22.5t20 48.5v69l-39 36l-27 -13v-93q0 -2 -2 -5h-2q-1 0 -3 0.5t-4 0.5h-688q-1 0 -5 -1t-8 -1t-7 1.5t-3 5.5v778q0 4 23 4h688q1 0 4.5 1.5t5 0.5t1.5 -6v-259zM1003 103l-117 113q28 44 28 96
q0 75 -54.5 128.5t-132.5 53.5t-133 -53.5t-55 -128.5t55 -128.5t133 -53.5q66 0 118 41l114 -111q11 -11 22 0l22 21q11 11 0 22zM591 311q0 55 40 93.5t96.5 38.5t96.5 -38.5t40 -93.5t-40 -93.5t-96.5 -38.5t-96.5 38.5t-40 93.5zM852 68z" />
    <glyph glyph-name="uniE627" unicode="&#xe627;" 
d="M896 -128h-768q-53 0 -90.5 37.5t-37.5 90.5v768q0 53 37.5 90.5t90.5 37.5h768q53 0 90.5 -37.5t37.5 -90.5v-768q0 -53 -37.5 -90.5t-90.5 -37.5zM896 704q0 27 -18.5 45.5t-45.5 18.5h-640q-27 0 -45.5 -18.5t-18.5 -45.5v-640q0 -27 18.5 -45.5t45.5 -18.5h640
q27 0 45.5 18.5t18.5 45.5v640zM736 128h-448q-13 0 -22.5 9.5t-9.5 22.5v64q0 13 9.5 22.5t22.5 9.5h448q13 0 22.5 -9.5t9.5 -22.5v-64q0 -13 -9.5 -22.5t-22.5 -9.5zM736 320h-256q-13 0 -22.5 9.5t-9.5 22.5v64q0 13 9.5 22.5t22.5 9.5h256q13 0 22.5 -9.5t9.5 -22.5
v-64q0 -13 -9.5 -22.5t-22.5 -9.5zM736 512h-64q-13 0 -22.5 9.5t-9.5 22.5v64q0 13 9.5 22.5t22.5 9.5h64q13 0 22.5 -9.5t9.5 -22.5v-64q0 -13 -9.5 -22.5t-22.5 -9.5zM544 512h-64q-13 0 -22.5 9.5t-9.5 22.5v64q0 13 9.5 22.5t22.5 9.5h64q13 0 22.5 -9.5t9.5 -22.5v-64
q0 -13 -9.5 -22.5t-22.5 -9.5zM352 512h-64q-13 0 -22.5 9.5t-9.5 22.5v64q0 13 9.5 22.5t22.5 9.5h64q13 0 22.5 -9.5t9.5 -22.5v-64q0 -13 -9.5 -22.5t-22.5 -9.5z" />
    <glyph glyph-name="uniE628" unicode="&#xe628;" 
d="M197 831h653l-252 -497v-416l-150 142v274z" />
    <glyph glyph-name="uniE629" unicode="&#xe629;" 
d="M512.5 -65q-91.5 0 -175 35.5t-143.5 95.5t-95.5 143.5t-35.5 175t35.5 174.5t95.5 143.5t143.5 96t175 35.5t174.5 -35.5t143.5 -96t96 -143.5t35.5 -174.5t-35.5 -175t-96 -143.5t-143.5 -95.5t-174.5 -35.5zM512.5 722q-91.5 0 -169 -45.5t-123 -123t-45.5 -169
t45.5 -169t123 -123t169 -45.5t169 45.5t123 123t45.5 169t-45.5 169t-123 123t-169 45.5zM288 162l110 338l339 111l-110 -339zM512.5 441q-23.5 0 -40 -16.5t-16.5 -40t16.5 -40t40 -16.5t40 16.5t16.5 40t-16.5 40t-40 16.5z" />
    <glyph glyph-name="uniE62A" unicode="&#xe62a;" 
d="M130 195q0 -26 18 -44.5t45 -18.5h189v-127h-252q-27 0 -50 9.5t-40.5 27t-27.5 41t-10 49.5v637q0 25 10 48.5t27.5 41t40.5 27.5t50 10h763q27 0 50 -10t40.5 -27.5t27.5 -41t10 -48.5v-252l-128 -1v62q0 26 -18.5 44.5t-45.5 18.5h-636q-27 0 -45 -18.5t-18 -44.5
v-383zM1001 151q13 -5 17.5 -19t2 -32.5t-9.5 -37.5t-17 -33t-21.5 -22t-21.5 -2q-21 9 -48 27t-58 41t-64.5 49t-65.5 53q-6 13 -19 16q-2 1 -2.5 2t-1.5 2q-2 -1 -2 -1.5t-1 -1.5h-2q-13 0 -22 -9t-9 -21q0 -7 4 -16q-7 -5 -18 -9.5t-23 -6t-24.5 0.5t-21.5 8
q-23 16 -43.5 31.5t-42.5 28.5q-7 4 -14 12.5t-11.5 18.5t-4.5 21t8 22q2 2 4 6q8 -5 18 -5q13 0 22 9t9 21q0 9 -4 15.5t-9 10.5q20 30 41.5 60t40.5 59q7 -3 15 -3q12 0 21 9t9 22q0 11 -6 19q40 37 87 -1q17 -14 35 -29t33 -28q34 -26 14 -74q-11 -2 -18 -11t-7 -20
q0 -4 2 -8q-6 -11 -12.5 -22.5t-14.5 -22.5q36 -19 74.5 -38.5t72.5 -37t62.5 -31.5t46.5 -22z" />
    <glyph glyph-name="uniE62B" unicode="&#xe62b;" 
d="M65 -127h-64v1022h64v-1022v0zM129 830q9 2 24 4.5t58.5 9.5t84.5 12.5t92 9.5t89.5 3t69 -8.5t38.5 -22.5q13 -27 12.5 -52t-6 -43.5t3 -30.5t38.5 -14q39 -2 93 3t104 14t94 18.5t72 16.5t27 7v-590q-90 -51 -193 -77t-186 -15q-32 3 -46 13t-13.5 23t3.5 29.5t6 34
t-6 35.5q-12 27 -64 32.5t-117 -4.5t-129 -25t-106 -27t-43 -13v657z" />
    <glyph glyph-name="uniE62C" unicode="&#xe62c;" 
d="M186 568l-40 -39l366 -366l366 366l-40 39l-326 -326z" />
    <glyph glyph-name="uniE62D" unicode="&#xe62d;" 
d="M832 256q-53 0 -90.5 38t-37.5 92t37.5 92t90.5 38t90.5 -38t37.5 -92t-37.5 -92t-90.5 -38zM512 256q-53 0 -90.5 38t-37.5 92t37.5 92t90.5 38t90.5 -38t37.5 -92t-37.5 -92t-90.5 -38zM192 256q-54 0 -91.5 38t-37.5 92t37.5 92t91 38t91 -38t37.5 -92t-37.5 -92
t-90.5 -38zM192 256z" />
    <glyph glyph-name="uniE62E" unicode="&#xe62e;" 
d="M833 650h-102v-51h-48v51h-102q-28 0 -47.5 -20t-19.5 -48v-157l116 -109q11 -10 19 -25h184q27 0 47 20t20 47v224q0 28 -20 48t-47 20zM736 455v-99h-59v99h-42l72 85l72 -86q-4 1 -43 1zM126 757q0 57 40 97.5t97.5 40.5t97.5 -40.5t40 -97.5t-40 -97.5t-97.5 -40.5
t-97.5 40.5t-40 97.5zM602 219q-14 -14 -33 -14q-18 0 -31 12l-185 173v-128q0 -43 -33 -70l100 -264q4 -18 -5.5 -34t-27.5 -21q-5 -1 -11 -1q-15 0 -27.5 9.5t-15.5 24.5l-58 113l-32 -102q-3 -19 -18 -30t-33.5 -8.5t-29.5 17.5t-8 33l58 259q-38 27 -38 74v213
q0 37 26 63.5t63 26.5q17 0 33 -6q13 -3 22 -12l282 -264q13 -13 14 -31.5t-12 -32.5z" />
    <glyph glyph-name="uniE62F" unicode="&#xe62f;" 
d="M896 548q0 -10 -0.5 -19t-1.5 -20q-10 -85 -38 -163t-71 -150t-99 -138.5t-122 -128.5q-9 -11 -23 -11q-16 0 -25 11q-65 62 -122 129.5t-100.5 141t-71.5 153t-36 164.5q0 9 -0.5 16t-0.5 15q0 72 28 135.5t76 110.5t113 74.5t138.5 27.5t138 -27.5t112.5 -74.5
t76.5 -110.5t28.5 -135.5zM540.5 389q33.5 0 63.5 12.5t52 34t34.5 50.5t12.5 62t-12.5 62t-34.5 50.5t-52 34.5t-63.5 13t-63 -13t-52 -34.5t-35.5 -50.5t-13 -62t13 -62t35.5 -50.5t52 -34t63 -12.5z" />
    <glyph glyph-name="uniE630" unicode="&#xe630;" horiz-adv-x="1000" 
d="M500 -104q-102 0 -194.5 39.5t-159.5 106.5t-106.5 159.5t-39.5 194.5t39.5 194.5t106.5 159.5t159.5 106.5t194.5 39.5t194.5 -39.5t159.5 -106.5t106.5 -159.5t39.5 -194.5t-39.5 -194.5t-106.5 -159.5t-159.5 -106.5t-194.5 -39.5zM500 771q-102 0 -188.5 -50
t-136.5 -136.5t-50 -188.5t50 -188.5t136.5 -136.5t188.5 -50t188.5 50t136.5 136.5t50 188.5t-50 188.5t-136.5 136.5t-188.5 50zM688 333h-188q-26 0 -44 18.5t-18 44.5v187q0 26 18 44.5t44 18.5t44.5 -18.5t18.5 -44.5v-125h125q25 0 43.5 -18t18.5 -44t-18.5 -44.5
t-43.5 -18.5zM688 333z" />
    <glyph glyph-name="uniE631" unicode="&#xe631;" horiz-adv-x="1139" 
d="M1138 571v-8v-9q0 -43 -15 -81.5t-42 -68.5v-532h-1024v532q-26 30 -41.5 68.5t-15.5 81.5v342h1138v-325zM967 334q-14 -3 -27.5 -5t-29.5 -2q-51 0 -95 21t-75 56q-32 -35 -75.5 -56t-95.5 -21q-51 0 -94.5 21t-75.5 56q-32 -35 -75.5 -56t-95.5 -21q-28 0 -57 7v-348
h796v348z" />
    <glyph glyph-name="uniE632" unicode="&#xe632;" 
d="M684 493q-17 8 -15.5 21.5t11.5 22.5q3 2 20 15.5t41 33.5q-43 49 -102 77t-129 28q-65 0 -121 -24t-98 -66t-66 -98.5t-24 -120.5t24 -120t66 -98t98 -66t121 -24q53 0 100.5 17t87 47.5t68 72t41.5 90.5q7 24 26.5 39t46.5 15q31 0 53 -22.5t22 -52.5q0 -15 -5 -28
q-21 -72 -63 -132.5t-100 -104t-128.5 -68t-148.5 -24.5q-95 0 -179 36t-146 98.5t-98.5 146t-36.5 178.5t36.5 179t98.5 146t146 98.5t179 36.5q105 0 195.5 -43.5t153.5 -118.5q24 17 39.5 30t20.5 16q6 5 13 7.5t13 0t11 -10.5t7 -25q1 -9 2 -31t2 -51t1 -60.5t-1 -58.5
q-1 -35 -17 -51q-8 -8 -24.5 -9t-34.5 3q-28 6 -61 13.5t-63.5 15t-53.5 14t-29 10.5z" />
    <glyph glyph-name="uniE633" unicode="&#xe633;" 
d="M692 315q42 0 79.5 -15t65 -41.5t43.5 -62t16 -75.5v-71q0 -1 -0.5 -1.5t-0.5 -1.5v-79q0 -14 -11 -25t-26 -11h-693q-15 0 -26 11t-11 25v153q0 40 16 75.5t43.5 62t64.5 41.5t79 15h361zM511 384q-53 0 -99.5 20t-81.5 55t-55 81.5t-20 99.5t20 99.5t55 81.5t81.5 55
t99.5 20t99.5 -20t81.5 -55t55 -81.5t20 -99.5t-20 -99.5t-55 -81.5t-81.5 -55t-99.5 -20z" />
    <glyph glyph-name="uniE634" unicode="&#xe634;" 
d="M625 692l-40 40l-365 -366l365 -366l40 40l-326 326z" />
    <glyph glyph-name="uniE635" unicode="&#xe635;" 
d="M889 492q-10 19 -35 21h-2l-235 2l61 300v2q3 28 -11 44q-13 14 -32 14q-16 0 -31 -8q-5 -3 -8 -7l-451 -534l-2 -2q-14 -21 -3 -42t40 -21q1 0 3 1h208l-116 -336q-1 -3 -1 -6q-3 -20 10 -34q12 -14 32 -14q11 0 25 5q6 3 11 8l529 559q2 2 3 4q15 23 5 44zM356 -24
l96 280q11 29 0 47q-9 15 -25 18h-5h-203l391 464l-53 -267q-5 -26 10 -44q16 -19 43 -19l198 -1z" />
    <glyph glyph-name="uniE636" unicode="&#xe636;" 
d="M517 88q7 0 15 1q37 4 66 28t40 60q2 6 -4 8.5t-9 -2.5q-2 -4 -7.5 -9.5t-30 -17t-58.5 -16.5q-17 -2 -33 -2q-53 0 -77 20q-5 5 -9.5 1t-1.5 -10q17 -28 46.5 -44.5t62.5 -16.5zM926 559h-2q-34 146 -151 241.5t-268 95.5q-156 0 -275 -100.5t-148 -252.5
q-28 -5 -47 -27.5t-19 -51.5v-160q0 -34 23.5 -57.5t56.5 -23.5q38 0 62 30q27 -70 78.5 -124.5t120.5 -84.5q2 3 4.5 6.5t4.5 3.5t3 -2q-27 21 -65 79t-49 131q-5 36 17.5 68t56.5 38q32 6 101.5 20t106.5 21q65 12 93 73q10 21 14 56q1 7 8 7q4 0 7 -4l2 1
q81 -117 89 -221q8 -89 -6 -145t-71 -108q-2 -2 -2 -5t3 -5q0 -1 1 -1h1q1 -1 1.5 -1t1.5 1q1 0 2 0.5t1 1.5q62 34 107.5 89t67.5 123q19 -28 52 -35q-26 -115 -120.5 -186.5t-227.5 -83.5q-7 20 -25 32t-40 12q-30 0 -50.5 -20t-20.5 -48.5t20.5 -49t50.5 -20.5
q23 0 41.5 13.5t25.5 34.5q153 13 261.5 98.5t132.5 222.5q23 9 37 29.5t14 45.5v162q0 33 -24 57t-58 24zM852 513q-40 108 -135 175.5t-212 67.5q-118 0 -212.5 -67t-134.5 -174q-2 3 -9 8q23 130 123 216t233 86q131 0 231 -85t124 -214q-6 -7 -8 -13zM357 44zM357 44z
" />
    <glyph glyph-name="uniE637" unicode="&#xe637;" horiz-adv-x="1118" 
d="M838 384q0 39 27 66t65.5 27t66 -27t27.5 -66t-27.5 -66t-66 -27t-65.5 27t-27 66zM1117 58q0 -77 -54.5 -131.5t-131.5 -54.5h-745q-77 0 -131.5 54.5t-54.5 131.5v652q0 77 54.5 131.5t131.5 54.5h745q77 0 131.5 -54.5t54.5 -131.5v-186h-1024v-280h1024v-186z" />
    <glyph glyph-name="uniE638" unicode="&#xe638;" 
d="M512 841l148 -301l332 -48l-240 -234l57 -331l-297 156l-297 -156l57 331l-240 234l332 48z" />
    <glyph glyph-name="uniE639" unicode="&#xe639;" 
d="M625 692l-40 40l-365 -366l365 -366l40 40l-326 326z" />
    <glyph glyph-name="uniE63A" unicode="&#xe63a;" 
d="M863 559l-351 -351l-351 352z" />
    <glyph glyph-name="uniE63B" unicode="&#xe63b;" 
d="M684 493q-17 8 -15.5 21.5t11.5 22.5q3 2 20 15.5t41 33.5q-43 49 -102 77t-129 28q-65 0 -121 -24t-98 -66t-66 -98.5t-24 -120.5t24 -120t66 -98t98 -66t121 -24q53 0 100.5 17t87 47.5t68 72t41.5 90.5q7 24 26.5 39t46.5 15q31 0 53 -22.5t22 -52.5q0 -15 -5 -28
q-21 -72 -63 -132.5t-100 -104t-128.5 -68t-148.5 -24.5q-95 0 -179 36t-146 98.5t-98.5 146t-36.5 178.5t36.5 179t98.5 146t146 98.5t179 36.5q105 0 195.5 -43.5t153.5 -118.5q24 17 39.5 30t20.5 16q6 5 13 7.5t13 0t11 -10.5t7 -25q1 -9 2 -31t2 -51t1 -60.5t-1 -58.5
q-1 -35 -17 -51q-8 -8 -24.5 -9t-34.5 3q-28 6 -61 13.5t-63.5 15t-53.5 14t-29 10.5z" />
  </font>
</defs>
</svg>
